<svg xmlns="http://www.w3.org/2000/svg" xmlns:xlink="http://www.w3.org/1999/xlink" width="500" zoomAndPan="magnify" viewBox="0 0 375 374.999991" height="500" preserveAspectRatio="xMidYMid meet" version="1.0"><defs><g/><clipPath id="0357a9c85d"><path d="M 158.441406 106.925781 L 216.191406 106.925781 L 216.191406 153 L 158.441406 153 Z M 158.441406 106.925781 " clip-rule="nonzero"/></clipPath><clipPath id="7730d45663"><path d="M 158.441406 127 L 201 127 L 201 170.675781 L 158.441406 170.675781 Z M 158.441406 127 " clip-rule="nonzero"/></clipPath></defs><rect x="-37.5" width="450" fill="#ffffff" y="-37.499999" height="449.999989" fill-opacity="1"/><rect x="-37.5" width="450" fill="#ffffff" y="-37.499999" height="449.999989" fill-opacity="1"/><g clip-path="url(#0357a9c85d)"><path fill="#3921ff" d="M 163.886719 108.425781 C 162.179688 109.402344 160.828125 110.769531 159.886719 112.382812 C 158.945312 114.011719 158.441406 115.867188 158.441406 117.839844 L 158.441406 136.699219 C 158.441406 138.660156 158.945312 140.511719 159.886719 142.140625 C 160.828125 143.757812 162.179688 145.121094 163.886719 146.117188 L 173.804688 151.851562 C 175.289062 152.710938 177.167969 152.207031 178.03125 150.722656 C 178.890625 149.242188 178.386719 147.359375 176.90625 146.5 L 166.984375 140.765625 L 166.972656 140.765625 C 166.21875 140.328125 165.621094 139.746094 165.238281 139.070312 C 164.851562 138.394531 164.640625 137.585938 164.640625 136.699219 L 164.640625 117.839844 C 164.640625 116.953125 164.851562 116.144531 165.238281 115.484375 L 165.238281 115.46875 C 165.621094 114.792969 166.21875 114.210938 166.984375 113.773438 C 167.738281 113.335938 168.535156 113.125 169.328125 113.125 C 170.125 113.125 170.933594 113.335938 171.671875 113.773438 L 189.832031 124.261719 L 189.84375 124.261719 L 208.015625 134.738281 C 208.769531 135.175781 209.351562 135.757812 209.75 136.449219 C 210.132812 137.125 210.34375 137.917969 210.34375 138.816406 C 210.34375 139.652344 210.160156 140.421875 209.828125 141.054688 C 209.800781 141.097656 209.777344 141.136719 209.761719 141.175781 C 209.363281 141.863281 208.769531 142.460938 208.027344 142.882812 C 206.542969 143.730469 206.039062 145.625 206.886719 147.09375 C 207.734375 148.578125 209.628906 149.082031 211.101562 148.234375 C 212.820312 147.242188 214.1875 145.878906 215.113281 144.273438 C 215.152344 144.207031 215.191406 144.140625 215.21875 144.0625 C 216.09375 142.488281 216.554688 140.699219 216.554688 138.804688 C 216.554688 136.84375 216.054688 134.992188 215.113281 133.363281 L 215.113281 133.347656 C 214.1875 131.746094 212.820312 130.382812 211.101562 129.390625 L 192.957031 118.914062 L 174.773438 108.425781 C 173.050781 107.429688 171.195312 106.925781 169.328125 106.925781 C 167.476562 106.925781 165.621094 107.429688 163.886719 108.425781 Z M 163.886719 108.425781 " fill-opacity="1" fill-rule="evenodd"/></g><g clip-path="url(#7730d45663)"><path fill="#000000" d="M 158.441406 155.1875 L 158.441406 159.78125 C 158.441406 161.742188 158.945312 163.597656 159.886719 165.226562 C 160.828125 166.855469 162.179688 168.21875 163.886719 169.199219 C 163.953125 169.238281 164.019531 169.277344 164.085938 169.304688 C 165.753906 170.230469 167.542969 170.695312 169.328125 170.695312 C 171.183594 170.695312 173.039062 170.191406 174.757812 169.199219 L 195.128906 157.453125 C 196.851562 156.457031 198.214844 155.09375 199.140625 153.492188 L 199.140625 153.480469 C 200.082031 151.851562 200.585938 149.996094 200.585938 148.035156 C 200.585938 146.074219 200.082031 144.222656 199.140625 142.59375 C 198.199219 140.976562 196.851562 139.613281 195.128906 138.621094 L 177.183594 128.261719 C 176.691406 127.984375 176.175781 127.851562 175.648438 127.851562 C 174.574219 127.851562 173.539062 128.410156 172.972656 129.402344 C 172.125 130.886719 172.628906 132.765625 174.109375 133.613281 L 192.054688 143.96875 C 192.808594 144.40625 193.40625 144.988281 193.789062 145.664062 C 194.175781 146.339844 194.386719 147.148438 194.386719 148.035156 C 194.386719 148.921875 194.175781 149.730469 193.789062 150.394531 C 193.394531 151.082031 192.796875 151.679688 192.054688 152.101562 L 171.6875 163.847656 C 170.933594 164.285156 170.136719 164.496094 169.328125 164.496094 C 168.574219 164.496094 167.820312 164.3125 167.105469 163.929688 C 167.066406 163.902344 167.023438 163.875 166.984375 163.847656 C 166.21875 163.398438 165.621094 162.816406 165.238281 162.152344 C 164.851562 161.476562 164.640625 160.671875 164.640625 159.78125 L 164.640625 155.1875 C 164.640625 153.480469 163.25 152.089844 161.542969 152.089844 C 159.832031 152.089844 158.441406 153.464844 158.441406 155.1875 Z M 158.441406 155.1875 " fill-opacity="1" fill-rule="evenodd"/></g><g fill="#3921ff" fill-opacity="1"><g transform="translate(98.157379, 208.676456)"><g><path d="M 8.9375 0.203125 C 7.476562 0.203125 6.175781 -0.03125 5.03125 -0.5 C 3.882812 -0.976562 2.96875 -1.675781 2.28125 -2.59375 C 1.59375 -3.519531 1.226562 -4.632812 1.1875 -5.9375 L 6.328125 -5.9375 C 6.398438 -5.195312 6.65625 -4.632812 7.09375 -4.25 C 7.53125 -3.863281 8.097656 -3.671875 8.796875 -3.671875 C 9.503906 -3.671875 10.066406 -3.832031 10.484375 -4.15625 C 10.898438 -4.488281 11.109375 -4.953125 11.109375 -5.546875 C 11.109375 -6.035156 10.941406 -6.4375 10.609375 -6.75 C 10.285156 -7.070312 9.878906 -7.335938 9.390625 -7.546875 C 8.910156 -7.753906 8.226562 -7.988281 7.34375 -8.25 C 6.0625 -8.644531 5.015625 -9.039062 4.203125 -9.4375 C 3.398438 -9.832031 2.707031 -10.414062 2.125 -11.1875 C 1.539062 -11.96875 1.25 -12.976562 1.25 -14.21875 C 1.25 -16.0625 1.914062 -17.503906 3.25 -18.546875 C 4.582031 -19.597656 6.328125 -20.125 8.484375 -20.125 C 10.671875 -20.125 12.429688 -19.597656 13.765625 -18.546875 C 15.097656 -17.503906 15.8125 -16.050781 15.90625 -14.1875 L 10.6875 -14.1875 C 10.644531 -14.832031 10.40625 -15.335938 9.96875 -15.703125 C 9.539062 -16.066406 8.988281 -16.25 8.3125 -16.25 C 7.726562 -16.25 7.253906 -16.09375 6.890625 -15.78125 C 6.535156 -15.46875 6.359375 -15.019531 6.359375 -14.4375 C 6.359375 -13.800781 6.660156 -13.300781 7.265625 -12.9375 C 7.867188 -12.582031 8.8125 -12.195312 10.09375 -11.78125 C 11.375 -11.351562 12.414062 -10.941406 13.21875 -10.546875 C 14.019531 -10.148438 14.710938 -9.570312 15.296875 -8.8125 C 15.878906 -8.0625 16.171875 -7.09375 16.171875 -5.90625 C 16.171875 -4.78125 15.878906 -3.753906 15.296875 -2.828125 C 14.722656 -1.898438 13.890625 -1.160156 12.796875 -0.609375 C 11.710938 -0.0664062 10.425781 0.203125 8.9375 0.203125 Z M 8.9375 0.203125 "/></g></g></g><g fill="#3921ff" fill-opacity="1"><g transform="translate(115.533503, 208.676456)"><g><path d="M 0.796875 -7.921875 C 0.796875 -9.535156 1.097656 -10.953125 1.703125 -12.171875 C 2.316406 -13.398438 3.148438 -14.34375 4.203125 -15 C 5.265625 -15.664062 6.445312 -16 7.75 -16 C 8.851562 -16 9.820312 -15.769531 10.65625 -15.3125 C 11.5 -14.863281 12.148438 -14.273438 12.609375 -13.546875 L 12.609375 -15.765625 L 17.4375 -15.765625 L 17.4375 0 L 12.609375 0 L 12.609375 -2.234375 C 12.140625 -1.492188 11.484375 -0.898438 10.640625 -0.453125 C 9.804688 -0.00390625 8.832031 0.21875 7.71875 0.21875 C 6.4375 0.21875 5.265625 -0.113281 4.203125 -0.78125 C 3.148438 -1.445312 2.316406 -2.394531 1.703125 -3.625 C 1.097656 -4.863281 0.796875 -6.296875 0.796875 -7.921875 Z M 12.609375 -7.890625 C 12.609375 -9.085938 12.269531 -10.035156 11.59375 -10.734375 C 10.925781 -11.429688 10.113281 -11.78125 9.15625 -11.78125 C 8.195312 -11.78125 7.378906 -11.4375 6.703125 -10.75 C 6.035156 -10.0625 5.703125 -9.117188 5.703125 -7.921875 C 5.703125 -6.710938 6.035156 -5.753906 6.703125 -5.046875 C 7.378906 -4.335938 8.195312 -3.984375 9.15625 -3.984375 C 10.113281 -3.984375 10.925781 -4.332031 11.59375 -5.03125 C 12.269531 -5.726562 12.609375 -6.679688 12.609375 -7.890625 Z M 12.609375 -7.890625 "/></g></g></g><g fill="#3921ff" fill-opacity="1"><g transform="translate(134.717874, 208.676456)"><g><path d="M 6.578125 -20.921875 L 6.578125 0 L 1.75 0 L 1.75 -20.921875 Z M 6.578125 -20.921875 "/></g></g></g><g fill="#3921ff" fill-opacity="1"><g transform="translate(143.052766, 208.676456)"><g><path d="M 16.625 -8.140625 C 16.625 -7.691406 16.59375 -7.222656 16.53125 -6.734375 L 5.59375 -6.734375 C 5.664062 -5.742188 5.976562 -4.988281 6.53125 -4.46875 C 7.09375 -3.957031 7.78125 -3.703125 8.59375 -3.703125 C 9.800781 -3.703125 10.640625 -4.210938 11.109375 -5.234375 L 16.25 -5.234375 C 15.988281 -4.191406 15.515625 -3.253906 14.828125 -2.421875 C 14.140625 -1.597656 13.273438 -0.953125 12.234375 -0.484375 C 11.203125 -0.015625 10.046875 0.21875 8.765625 0.21875 C 7.210938 0.21875 5.832031 -0.109375 4.625 -0.765625 C 3.425781 -1.421875 2.488281 -2.359375 1.8125 -3.578125 C 1.132812 -4.804688 0.796875 -6.242188 0.796875 -7.890625 C 0.796875 -9.523438 1.128906 -10.953125 1.796875 -12.171875 C 2.460938 -13.398438 3.398438 -14.34375 4.609375 -15 C 5.816406 -15.664062 7.203125 -16 8.765625 -16 C 10.285156 -16 11.640625 -15.675781 12.828125 -15.03125 C 14.015625 -14.394531 14.941406 -13.484375 15.609375 -12.296875 C 16.285156 -11.109375 16.625 -9.722656 16.625 -8.140625 Z M 11.671875 -9.40625 C 11.671875 -10.238281 11.390625 -10.898438 10.828125 -11.390625 C 10.265625 -11.878906 9.554688 -12.125 8.703125 -12.125 C 7.890625 -12.125 7.207031 -11.890625 6.65625 -11.421875 C 6.101562 -10.953125 5.757812 -10.28125 5.625 -9.40625 Z M 11.671875 -9.40625 "/></g></g></g><g fill="#000000" fill-opacity="1"><g transform="translate(160.465968, 208.676456)"><g><path d="M 8.9375 0.203125 C 7.476562 0.203125 6.175781 -0.03125 5.03125 -0.5 C 3.882812 -0.976562 2.96875 -1.675781 2.28125 -2.59375 C 1.59375 -3.519531 1.226562 -4.632812 1.1875 -5.9375 L 6.328125 -5.9375 C 6.398438 -5.195312 6.65625 -4.632812 7.09375 -4.25 C 7.53125 -3.863281 8.097656 -3.671875 8.796875 -3.671875 C 9.503906 -3.671875 10.066406 -3.832031 10.484375 -4.15625 C 10.898438 -4.488281 11.109375 -4.953125 11.109375 -5.546875 C 11.109375 -6.035156 10.941406 -6.4375 10.609375 -6.75 C 10.285156 -7.070312 9.878906 -7.335938 9.390625 -7.546875 C 8.910156 -7.753906 8.226562 -7.988281 7.34375 -8.25 C 6.0625 -8.644531 5.015625 -9.039062 4.203125 -9.4375 C 3.398438 -9.832031 2.707031 -10.414062 2.125 -11.1875 C 1.539062 -11.96875 1.25 -12.976562 1.25 -14.21875 C 1.25 -16.0625 1.914062 -17.503906 3.25 -18.546875 C 4.582031 -19.597656 6.328125 -20.125 8.484375 -20.125 C 10.671875 -20.125 12.429688 -19.597656 13.765625 -18.546875 C 15.097656 -17.503906 15.8125 -16.050781 15.90625 -14.1875 L 10.6875 -14.1875 C 10.644531 -14.832031 10.40625 -15.335938 9.96875 -15.703125 C 9.539062 -16.066406 8.988281 -16.25 8.3125 -16.25 C 7.726562 -16.25 7.253906 -16.09375 6.890625 -15.78125 C 6.535156 -15.46875 6.359375 -15.019531 6.359375 -14.4375 C 6.359375 -13.800781 6.660156 -13.300781 7.265625 -12.9375 C 7.867188 -12.582031 8.8125 -12.195312 10.09375 -11.78125 C 11.375 -11.351562 12.414062 -10.941406 13.21875 -10.546875 C 14.019531 -10.148438 14.710938 -9.570312 15.296875 -8.8125 C 15.878906 -8.0625 16.171875 -7.09375 16.171875 -5.90625 C 16.171875 -4.78125 15.878906 -3.753906 15.296875 -2.828125 C 14.722656 -1.898438 13.890625 -1.160156 12.796875 -0.609375 C 11.710938 -0.0664062 10.425781 0.203125 8.9375 0.203125 Z M 8.9375 0.203125 "/></g></g></g><g fill="#000000" fill-opacity="1"><g transform="translate(177.842093, 208.676456)"><g><path d="M 17.328125 -15.765625 L 17.328125 0 L 12.5 0 L 12.5 -2.140625 C 12.007812 -1.453125 11.34375 -0.894531 10.5 -0.46875 C 9.664062 -0.0390625 8.738281 0.171875 7.71875 0.171875 C 6.507812 0.171875 5.441406 -0.09375 4.515625 -0.625 C 3.597656 -1.164062 2.882812 -1.945312 2.375 -2.96875 C 1.863281 -3.988281 1.609375 -5.1875 1.609375 -6.5625 L 1.609375 -15.765625 L 6.421875 -15.765625 L 6.421875 -7.203125 C 6.421875 -6.148438 6.691406 -5.332031 7.234375 -4.75 C 7.785156 -4.164062 8.519531 -3.875 9.4375 -3.875 C 10.382812 -3.875 11.128906 -4.164062 11.671875 -4.75 C 12.222656 -5.332031 12.5 -6.148438 12.5 -7.203125 L 12.5 -15.765625 Z M 17.328125 -15.765625 "/></g></g></g><g fill="#000000" fill-opacity="1"><g transform="translate(196.885186, 208.676456)"><g><path d="M 6.578125 -13.546875 C 7.054688 -14.273438 7.707031 -14.863281 8.53125 -15.3125 C 9.363281 -15.769531 10.335938 -16 11.453125 -16 C 12.742188 -16 13.914062 -15.664062 14.96875 -15 C 16.03125 -14.34375 16.867188 -13.398438 17.484375 -12.171875 C 18.097656 -10.953125 18.40625 -9.535156 18.40625 -7.921875 C 18.40625 -6.296875 18.097656 -4.863281 17.484375 -3.625 C 16.867188 -2.394531 16.03125 -1.445312 14.96875 -0.78125 C 13.914062 -0.113281 12.742188 0.21875 11.453125 0.21875 C 10.359375 0.21875 9.390625 -0.00390625 8.546875 -0.453125 C 7.710938 -0.898438 7.054688 -1.484375 6.578125 -2.203125 L 6.578125 7.515625 L 1.75 7.515625 L 1.75 -15.765625 L 6.578125 -15.765625 Z M 13.484375 -7.921875 C 13.484375 -9.117188 13.144531 -10.0625 12.46875 -10.75 C 11.800781 -11.4375 10.976562 -11.78125 10 -11.78125 C 9.039062 -11.78125 8.226562 -11.429688 7.5625 -10.734375 C 6.894531 -10.035156 6.5625 -9.085938 6.5625 -7.890625 C 6.5625 -6.679688 6.894531 -5.726562 7.5625 -5.03125 C 8.226562 -4.332031 9.039062 -3.984375 10 -3.984375 C 10.96875 -3.984375 11.789062 -4.335938 12.46875 -5.046875 C 13.144531 -5.753906 13.484375 -6.710938 13.484375 -7.921875 Z M 13.484375 -7.921875 "/></g></g></g><g fill="#000000" fill-opacity="1"><g transform="translate(216.069557, 208.676456)"><g><path d="M 6.578125 -13.546875 C 7.054688 -14.273438 7.707031 -14.863281 8.53125 -15.3125 C 9.363281 -15.769531 10.335938 -16 11.453125 -16 C 12.742188 -16 13.914062 -15.664062 14.96875 -15 C 16.03125 -14.34375 16.867188 -13.398438 17.484375 -12.171875 C 18.097656 -10.953125 18.40625 -9.535156 18.40625 -7.921875 C 18.40625 -6.296875 18.097656 -4.863281 17.484375 -3.625 C 16.867188 -2.394531 16.03125 -1.445312 14.96875 -0.78125 C 13.914062 -0.113281 12.742188 0.21875 11.453125 0.21875 C 10.359375 0.21875 9.390625 -0.00390625 8.546875 -0.453125 C 7.710938 -0.898438 7.054688 -1.484375 6.578125 -2.203125 L 6.578125 7.515625 L 1.75 7.515625 L 1.75 -15.765625 L 6.578125 -15.765625 Z M 13.484375 -7.921875 C 13.484375 -9.117188 13.144531 -10.0625 12.46875 -10.75 C 11.800781 -11.4375 10.976562 -11.78125 10 -11.78125 C 9.039062 -11.78125 8.226562 -11.429688 7.5625 -10.734375 C 6.894531 -10.035156 6.5625 -9.085938 6.5625 -7.890625 C 6.5625 -6.679688 6.894531 -5.726562 7.5625 -5.03125 C 8.226562 -4.332031 9.039062 -3.984375 10 -3.984375 C 10.96875 -3.984375 11.789062 -4.335938 12.46875 -5.046875 C 13.144531 -5.753906 13.484375 -6.710938 13.484375 -7.921875 Z M 13.484375 -7.921875 "/></g></g></g><g fill="#000000" fill-opacity="1"><g transform="translate(235.253928, 208.676456)"><g><path d="M 8.9375 0.21875 C 7.382812 0.21875 5.988281 -0.109375 4.75 -0.765625 C 3.519531 -1.421875 2.550781 -2.359375 1.84375 -3.578125 C 1.144531 -4.804688 0.796875 -6.242188 0.796875 -7.890625 C 0.796875 -9.503906 1.148438 -10.925781 1.859375 -12.15625 C 2.578125 -13.394531 3.554688 -14.34375 4.796875 -15 C 6.046875 -15.664062 7.441406 -16 8.984375 -16 C 10.535156 -16 11.929688 -15.664062 13.171875 -15 C 14.410156 -14.34375 15.390625 -13.394531 16.109375 -12.15625 C 16.828125 -10.925781 17.1875 -9.503906 17.1875 -7.890625 C 17.1875 -6.265625 16.820312 -4.832031 16.09375 -3.59375 C 15.375 -2.363281 14.382812 -1.421875 13.125 -0.765625 C 11.875 -0.109375 10.476562 0.21875 8.9375 0.21875 Z M 8.9375 -3.953125 C 9.851562 -3.953125 10.632812 -4.289062 11.28125 -4.96875 C 11.9375 -5.65625 12.265625 -6.628906 12.265625 -7.890625 C 12.265625 -9.148438 11.945312 -10.117188 11.3125 -10.796875 C 10.6875 -11.472656 9.910156 -11.8125 8.984375 -11.8125 C 8.046875 -11.8125 7.265625 -11.476562 6.640625 -10.8125 C 6.015625 -10.144531 5.703125 -9.171875 5.703125 -7.890625 C 5.703125 -6.628906 6.007812 -5.65625 6.625 -4.96875 C 7.238281 -4.289062 8.007812 -3.953125 8.9375 -3.953125 Z M 8.9375 -3.953125 "/></g></g></g><g fill="#000000" fill-opacity="1"><g transform="translate(253.251627, 208.676456)"><g><path d="M 6.578125 -13.140625 C 7.148438 -14.003906 7.859375 -14.6875 8.703125 -15.1875 C 9.554688 -15.6875 10.5 -15.9375 11.53125 -15.9375 L 11.53125 -10.828125 L 10.203125 -10.828125 C 8.992188 -10.828125 8.085938 -10.566406 7.484375 -10.046875 C 6.878906 -9.523438 6.578125 -8.617188 6.578125 -7.328125 L 6.578125 0 L 1.75 0 L 1.75 -15.765625 L 6.578125 -15.765625 Z M 6.578125 -13.140625 "/></g></g></g><g fill="#000000" fill-opacity="1"><g transform="translate(265.344277, 208.676456)"><g><path d="M 10.546875 -4.09375 L 10.546875 0 L 8.078125 0 C 6.328125 0 4.960938 -0.425781 3.984375 -1.28125 C 3.003906 -2.144531 2.515625 -3.546875 2.515625 -5.484375 L 2.515625 -11.765625 L 0.59375 -11.765625 L 0.59375 -15.765625 L 2.515625 -15.765625 L 2.515625 -19.609375 L 7.34375 -19.609375 L 7.34375 -15.765625 L 10.515625 -15.765625 L 10.515625 -11.765625 L 7.34375 -11.765625 L 7.34375 -5.421875 C 7.34375 -4.953125 7.457031 -4.613281 7.6875 -4.40625 C 7.914062 -4.195312 8.289062 -4.09375 8.8125 -4.09375 Z M 10.546875 -4.09375 "/></g></g></g></svg>